<svg id="Layer_1" data-name="Layer 1" xmlns="http://www.w3.org/2000/svg" viewBox="0 0 2048 1024"><defs><style>.cls-1{fill:#ff0074;}.cls-2{fill:#fff;}</style></defs><path class="cls-1" d="M656.5,520.78q0,8.43-39.06,19.53Q621,586.47,621,618.84q0,55.92-14.18,55.91-7.55,0-12-9.33T587.74,633q-3.09-42.6-6.64-83.43-20,5.34-36.37,9.56T495,572.69q-39,102.09-46.15,102.06c-4.75,0-9.83-2.89-15.32-8.65s-8.19-11.9-8.19-18.43q0-4.41,25.29-63h-3.11a23.78,23.78,0,0,1-15.74-5.77,18.05,18.05,0,0,1-6.92-14.44q0-8.65,43.91-22.86,7.08-16,11.54-28.86,10.22-25.31,28.4-69.21t23.06-56.13q4.88-12.21,17.07-20.86t23.74-8.65q13.74,0,24.62,43.92t17.52,108.73a209.46,209.46,0,0,1,21.73-1.33C649.86,509.22,656.5,513.06,656.5,520.78Zm-145.09,9.29q31.48-8.43,66.55-14.18-8-75.88-15.51-114Q542.47,447.55,511.41,530.07Z"/><path class="cls-1" d="M766.24,455.1q15.09,0,28.4,16.64C803.52,482.85,808,492.51,808,500.8c0,5-2.38,7.54-7.1,7.54q-4.87,0-15.09-7.77t-20.86-7.77q-10.63,0-33.49,12.43T708.56,531.4q0,10.22,40.81,35.05a118,118,0,0,1,28.18,25.07q12.63,15.3,12.63,32.84T766,658.52q-24.21,16.62-56.36,16.65t-56.8-15.52q-24.63-15.51-24.62-29.27c0-3.85,1-6.87,2.88-9.1a9.21,9.21,0,0,1,7.32-3.34c2.94,0,7.1,1.92,12.44,5.77q24,17.29,49.91,17.29t37.5-6c7.69-4,11.53-9.33,11.53-16s-4.29-13.76-12.86-21.31a177.31,177.31,0,0,0-28.17-20.18,136.13,136.13,0,0,1-28.18-21.73Q667.7,543,667.72,529.65q0-23.52,37-49T766.24,455.1Z"/><path class="cls-1" d="M959.24,455.1c5,0,9.92,1.83,14.64,5.54s7.09,7.77,7.09,12.2q0,12-32.16,83t-45.7,95.61q-13.51,24.63-23.74,24.62c-3.84,0-8.59-2.8-14.18-8.43a55.59,55.59,0,0,1-12.44-18.2q-12-27.93-25.75-90.07t-13.76-90.94q0-13.32,8-13.31c6.5,0,13.17,2.74,20,8.19a42.73,42.73,0,0,1,14.19,20.63c.88,4.75,2.06,16.56,3.56,35.5q6.19,70.13,21.31,107.82,12-25.74,30.61-73T941.24,481Q953.06,455.11,959.24,455.1Z"/><path class="cls-1" d="M1126.07,475.28q16.88,20.18,16.87,36.37t-11.08,33.06c3.56,4.44,5.32,8.29,5.32,11.54q0,12.42-5.54,42.59c-3.7,20.12-5.94,33.29-6.64,39.48s-1.42,11.16-2,14.86-1.33,7.32-2.23,10.88c-1.19,7.41-3.85,11.08-8,11.08-5.31,0-9.69-4.66-13.09-14s-5.39-21.36-6-36.14q-39.51,50.15-73.22,50.13-20.44,0-40.16-17.52t-19.76-36.15q0-26.62,19.53-65.87a259.34,259.34,0,0,1,50.59-69.9q31.06-30.6,58.56-30.6Q1109.23,455.1,1126.07,475.28Zm-16.39,57.9q0-41.25-16.42-41.26-17.29,0-40.39,24.62a245.77,245.77,0,0,0-39.06,55.67q-16,31.08-16,49.26a14.54,14.54,0,0,0,6.21,12.21,23.67,23.67,0,0,0,14.64,4.67q20.86,0,47-28.18t36.37-68.56q1.32-6.66,7.55-8v-.43Z"/><path class="cls-1" d="M1299,363.25c1.32-2.07,4.12-3.11,8.42-3.11s9.69,3.7,16.19,11.08,9.75,15.23,9.75,23.51q0,31.08-38.15,157.08Q1276.11,613,1276.11,625t11.53,12q50.16,0,110-16.42,19.08-5.34,22.87-5.32c2.51,0,4.21.51,5.11,1.56s1.33,3,1.33,6q0,18.66-45.47,35a270.76,270.76,0,0,1-92.5,16.42c-14.19,0-26.57-4.12-37-12.43s-15.75-18.12-15.75-29.51,10.12-52.28,30.39-122.68S1297,393.85,1297,373.45C1297,368.73,1297.65,365.31,1299,363.25Z"/><path class="cls-1" d="M1597.36,475.28q16.88,20.18,16.88,36.37t-11.08,33.06c3.56,4.44,5.31,8.29,5.31,11.54q0,12.42-5.54,42.59t-6.64,39.48q-1.11,9.31-2,14.86c-.59,3.71-1.33,7.32-2.23,10.88-1.19,7.41-3.84,11.08-8,11.08-5.31,0-9.69-4.66-13.08-14s-5.4-21.36-6-36.14q-39.51,50.15-73.23,50.13-20.43,0-40.16-17.52t-19.76-36.15q0-26.62,19.53-65.87A259.55,259.55,0,0,1,1502,485.7q31.08-30.6,58.56-30.6Q1580.52,455.1,1597.36,475.28Zm-16.42,57.9q0-41.25-16.42-41.26-17.3,0-40.38,24.62a245.14,245.14,0,0,0-39.06,55.67q-16,31.08-16,49.26a14.53,14.53,0,0,0,6.22,12.21,23.63,23.63,0,0,0,14.64,4.67q20.85,0,47-28.18t36.37-68.56q1.31-6.66,7.54-8v-.43Z"/><path class="cls-1" d="M1647.5,675.17c-4.16,0-9-3.16-14.64-9.55s-8.42-12.35-8.42-18,4.66-24.84,14-57.68,18.62-72.41,28-118.7,14-88.65,14-127.12q0-13.31,9.75-13.31,7.08,0,17.29,13.08t10.21,25.53q0,54.56-24,155.75,52.78-71.45,95.84-71.45,20.85,0,35.27,20.4t14.41,48.59q0,28.18-16.19,64.55a192.16,192.16,0,0,1-43.7,62.34q-27.51,25.95-57.68,26T1662.14,645l-.45.45C1655.19,665.28,1650.47,675.17,1647.5,675.17ZM1718,641q28.83,0,56.58-39.25T1802.35,519q0-26.16-16-26.17-25.74,0-57.46,35.94t-54.8,85.64Q1695,641,1718,641Z"/><path class="cls-1" d="M1966.09,455.1q15.11,0,28.41,16.64c8.87,11.11,13.31,20.77,13.31,29.06,0,5-2.38,7.54-7.1,7.54q-4.87,0-15.09-7.77t-20.85-7.77q-10.65,0-33.49,12.43t-22.87,26.17q0,10.22,40.81,35.05a117.67,117.67,0,0,1,28.18,25.07q12.63,15.3,12.63,32.84t-24.19,34.16q-24.21,16.62-56.35,16.65t-56.81-15.52q-24.63-15.51-24.62-29.27c0-3.85,1-6.87,2.89-9.1a9.19,9.19,0,0,1,7.32-3.34q4.41,0,12.43,5.77,24,17.29,49.91,17.29t37.5-6c7.69-4,11.54-9.33,11.54-16s-4.3-13.76-12.86-21.31a177.4,177.4,0,0,0-28.18-20.18,136.66,136.66,0,0,1-28.18-21.73q-12.89-12.84-12.86-26.17,0-23.52,37-49T1966.09,455.1Z"/><circle class="cls-1" cx="214.46" cy="518.9" r="174.27"/><path class="cls-2" d="M298.8,522.24q0,6.38-29.44,14.73,2.67,34.8,2.67,59.22,0,42.15-10.7,42.15-5.7,0-9-7t-5.35-24.43q-2.34-32.11-5-62.9-15.06,4-27.43,7.2T177,561.39q-29.44,77-34.79,77t-11.54-6.52q-6.2-6.52-6.19-13.89,0-3.33,19.07-47.51h-2.34a17.88,17.88,0,0,1-11.88-4.35,13.59,13.59,0,0,1-5.19-10.87q0-6.53,33.12-17.23,5.35-12,8.7-21.75,7.69-19.07,21.42-52.19t17.39-42.32A35.34,35.34,0,0,1,217.67,406q9.2-6.53,17.89-6.52,10.38,0,18.57,33.12t13.22,82a155.92,155.92,0,0,1,16.39-1Q298.8,513.55,298.8,522.24Zm-109.41,7q23.76-6.35,50.19-10.7-6-57.23-11.71-86Q212.81,467.05,189.39,529.27Z"/></svg>