<svg id="Layer_1" data-name="Layer 1" xmlns="http://www.w3.org/2000/svg" viewBox="0 0 2048 2048"><defs><style>.cls-1{fill:#ff0074;}.cls-2{fill:#fff;}</style></defs><circle class="cls-1" cx="1024" cy="1024" r="1009.34"/><path class="cls-2" d="M1512.46,1043.38q0,36.84-170.53,85.26,15.49,201.55,15.51,343,0,244.15-62,244.15-33,0-52.32-40.69t-31-141.45q-13.57-186-29.07-364.31-87.19,23.26-158.89,41.67t-217,59.1q-170.55,445.71-201.53,445.68T538.72,1678q-35.87-37.79-35.84-80.42,0-19.35,110.45-275.16H599.77q-38.79,0-68.8-25.19t-30-63q0-37.79,191.84-99.79,31-69.76,50.38-126,44.55-110.46,124-302.29T967.94,461.08q21.3-53.28,74.61-91.08t103.67-37.78q60,0,107.54,191.83t76.55,474.76q54.23-5.82,95-5.81Q1512.46,993,1512.46,1043.38ZM878.8,1084.07q137.58-36.78,290.67-62-34.87-331.37-67.82-498Q1014.46,723.67,878.8,1084.07Z"/></svg>